<svg width="120" height="29" viewBox="0 0 120 29" fill="none" xmlns="http://www.w3.org/2000/svg">
<path d="M49.4766 15.7578H46.5156V14.2031H49.4766C49.9922 14.2031 50.4089 14.1198 50.7266 13.9531C51.0443 13.7865 51.276 13.5573 51.4219 13.2656C51.5729 12.9688 51.6484 12.6302 51.6484 12.25C51.6484 11.8906 51.5729 11.5547 51.4219 11.2422C51.276 10.9245 51.0443 10.6693 50.7266 10.4766C50.4089 10.2839 49.9922 10.1875 49.4766 10.1875H47.1172V20H45.1562V8.625H49.4766C50.3568 8.625 51.1042 8.78125 51.7188 9.09375C52.3385 9.40104 52.8099 9.82812 53.1328 10.375C53.4557 10.9167 53.6172 11.5365 53.6172 12.2344C53.6172 12.9688 53.4557 13.599 53.1328 14.125C52.8099 14.651 52.3385 15.0547 51.7188 15.3359C51.1042 15.6172 50.3568 15.7578 49.4766 15.7578ZM57.2031 8V20H55.3125V8H57.2031ZM64.0312 18.3047V14.2734C64.0312 13.9714 63.9766 13.7109 63.8672 13.4922C63.7578 13.2734 63.5911 13.1042 63.3672 12.9844C63.1484 12.8646 62.8724 12.8047 62.5391 12.8047C62.2318 12.8047 61.9661 12.8568 61.7422 12.9609C61.5182 13.0651 61.3438 13.2057 61.2188 13.3828C61.0938 13.5599 61.0312 13.7604 61.0312 13.9844H59.1562C59.1562 13.651 59.237 13.3281 59.3984 13.0156C59.5599 12.7031 59.7943 12.4245 60.1016 12.1797C60.4089 11.9349 60.776 11.7422 61.2031 11.6016C61.6302 11.4609 62.1094 11.3906 62.6406 11.3906C63.276 11.3906 63.8385 11.4974 64.3281 11.7109C64.8229 11.9245 65.2109 12.2474 65.4922 12.6797C65.7786 13.1068 65.9219 13.6432 65.9219 14.2891V18.0469C65.9219 18.4323 65.9479 18.7786 66 19.0859C66.0573 19.388 66.138 19.651 66.2422 19.875V20H64.3125C64.224 19.7969 64.1536 19.5391 64.1016 19.2266C64.0547 18.9089 64.0312 18.6016 64.0312 18.3047ZM64.3047 14.8594L64.3203 16.0234H62.9688C62.6198 16.0234 62.3125 16.0573 62.0469 16.125C61.7812 16.1875 61.5599 16.2812 61.3828 16.4062C61.2057 16.5312 61.0729 16.6823 60.9844 16.8594C60.8958 17.0365 60.8516 17.237 60.8516 17.4609C60.8516 17.6849 60.9036 17.8906 61.0078 18.0781C61.112 18.2604 61.263 18.4036 61.4609 18.5078C61.6641 18.612 61.9089 18.6641 62.1953 18.6641C62.5807 18.6641 62.9167 18.5859 63.2031 18.4297C63.4948 18.2682 63.724 18.0729 63.8906 17.8438C64.0573 17.6094 64.1458 17.388 64.1562 17.1797L64.7656 18.0156C64.7031 18.2292 64.5964 18.4583 64.4453 18.7031C64.2943 18.9479 64.0964 19.1823 63.8516 19.4062C63.612 19.625 63.3229 19.8047 62.9844 19.9453C62.651 20.0859 62.2656 20.1562 61.8281 20.1562C61.276 20.1562 60.7839 20.0469 60.3516 19.8281C59.9193 19.6042 59.5807 19.3047 59.3359 18.9297C59.0911 18.5495 58.9688 18.1198 58.9688 17.6406C58.9688 17.1927 59.0521 16.7969 59.2188 16.4531C59.3906 16.1042 59.6406 15.8125 59.9688 15.5781C60.3021 15.3438 60.7083 15.1667 61.1875 15.0469C61.6667 14.9219 62.2135 14.8594 62.8281 14.8594H64.3047ZM70.2188 19.0781L72.5156 11.5469H74.5312L71.1406 21.2891C71.0625 21.4974 70.9609 21.724 70.8359 21.9688C70.7109 22.2135 70.5469 22.4453 70.3438 22.6641C70.1458 22.888 69.8984 23.0677 69.6016 23.2031C69.3047 23.3438 68.9453 23.4141 68.5234 23.4141C68.3568 23.4141 68.1953 23.3984 68.0391 23.3672C67.888 23.3411 67.7448 23.3125 67.6094 23.2812L67.6016 21.8438C67.6536 21.849 67.7161 21.8542 67.7891 21.8594C67.8672 21.8646 67.9297 21.8672 67.9766 21.8672C68.2891 21.8672 68.5495 21.8281 68.7578 21.75C68.9661 21.6771 69.1354 21.5573 69.2656 21.3906C69.401 21.224 69.5156 21 69.6094 20.7188L70.2188 19.0781ZM68.9219 11.5469L70.9297 17.875L71.2656 19.8594L69.9609 20.1953L66.8906 11.5469H68.9219ZM83.6797 17.9219L86.6719 8.625H88.8359L84.7578 20H83.2969L83.6797 17.9219ZM80.9141 8.625L83.8828 17.9219L84.2891 20H82.8203L78.7578 8.625H80.9141ZM91.9375 11.5469V20H90.0469V11.5469H91.9375ZM89.9219 9.32812C89.9219 9.04167 90.0156 8.80469 90.2031 8.61719C90.3958 8.42448 90.6615 8.32812 91 8.32812C91.3333 8.32812 91.5964 8.42448 91.7891 8.61719C91.9818 8.80469 92.0781 9.04167 92.0781 9.32812C92.0781 9.60938 91.9818 9.84375 91.7891 10.0312C91.5964 10.2188 91.3333 10.3125 91 10.3125C90.6615 10.3125 90.3958 10.2188 90.2031 10.0312C90.0156 9.84375 89.9219 9.60938 89.9219 9.32812ZM99.1562 18.25V8H101.047V20H99.3359L99.1562 18.25ZM93.6562 15.8672V15.7031C93.6562 15.0625 93.7318 14.4792 93.8828 13.9531C94.0339 13.4219 94.2526 12.9661 94.5391 12.5859C94.8255 12.2005 95.1745 11.9062 95.5859 11.7031C95.9974 11.4948 96.4609 11.3906 96.9766 11.3906C97.487 11.3906 97.9349 11.4896 98.3203 11.6875C98.7057 11.8854 99.0339 12.1693 99.3047 12.5391C99.5755 12.9036 99.7917 13.3411 99.9531 13.8516C100.115 14.3568 100.229 14.9193 100.297 15.5391V16.0625C100.229 16.6667 100.115 17.2188 99.9531 17.7188C99.7917 18.2188 99.5755 18.651 99.3047 19.0156C99.0339 19.3802 98.7031 19.6615 98.3125 19.8594C97.9271 20.0573 97.4766 20.1562 96.9609 20.1562C96.4505 20.1562 95.9896 20.0495 95.5781 19.8359C95.1719 19.6224 94.8255 19.3229 94.5391 18.9375C94.2526 18.5521 94.0339 18.099 93.8828 17.5781C93.7318 17.0521 93.6562 16.4818 93.6562 15.8672ZM95.5391 15.7031V15.8672C95.5391 16.2526 95.5729 16.612 95.6406 16.9453C95.7135 17.2786 95.8255 17.5729 95.9766 17.8281C96.1276 18.0781 96.3229 18.276 96.5625 18.4219C96.8073 18.5625 97.099 18.6328 97.4375 18.6328C97.8646 18.6328 98.2161 18.5391 98.4922 18.3516C98.7682 18.1641 98.9844 17.9115 99.1406 17.5938C99.3021 17.2708 99.4115 16.9115 99.4688 16.5156V15.1016C99.4375 14.7943 99.3724 14.5078 99.2734 14.2422C99.1797 13.9766 99.0521 13.7448 98.8906 13.5469C98.7292 13.3438 98.5286 13.1875 98.2891 13.0781C98.0547 12.9635 97.776 12.9062 97.4531 12.9062C97.1094 12.9062 96.8177 12.9792 96.5781 13.125C96.3385 13.2708 96.1406 13.4714 95.9844 13.7266C95.8333 13.9818 95.7214 14.2786 95.6484 14.6172C95.5755 14.9557 95.5391 15.3177 95.5391 15.7031ZM106.742 20.1562C106.117 20.1562 105.552 20.0547 105.047 19.8516C104.547 19.6432 104.12 19.3542 103.766 18.9844C103.417 18.6146 103.148 18.1797 102.961 17.6797C102.773 17.1797 102.68 16.6406 102.68 16.0625V15.75C102.68 15.0885 102.776 14.4896 102.969 13.9531C103.161 13.4167 103.43 12.9583 103.773 12.5781C104.117 12.1927 104.523 11.8984 104.992 11.6953C105.461 11.4922 105.969 11.3906 106.516 11.3906C107.12 11.3906 107.648 11.4922 108.102 11.6953C108.555 11.8984 108.93 12.1849 109.227 12.5547C109.529 12.9193 109.753 13.3542 109.898 13.8594C110.049 14.3646 110.125 14.9219 110.125 15.5312V16.3359H103.594V14.9844H108.266V14.8359C108.255 14.4974 108.188 14.1797 108.062 13.8828C107.943 13.5859 107.758 13.3464 107.508 13.1641C107.258 12.9818 106.924 12.8906 106.508 12.8906C106.195 12.8906 105.917 12.9583 105.672 13.0938C105.432 13.224 105.232 13.4141 105.07 13.6641C104.909 13.9141 104.784 14.2161 104.695 14.5703C104.612 14.9193 104.57 15.3125 104.57 15.75V16.0625C104.57 16.4323 104.62 16.776 104.719 17.0938C104.823 17.4062 104.974 17.6797 105.172 17.9141C105.37 18.1484 105.609 18.3333 105.891 18.4688C106.172 18.599 106.492 18.6641 106.852 18.6641C107.305 18.6641 107.708 18.5729 108.062 18.3906C108.417 18.2083 108.724 17.9505 108.984 17.6172L109.977 18.5781C109.794 18.8438 109.557 19.099 109.266 19.3438C108.974 19.5833 108.617 19.7786 108.195 19.9297C107.779 20.0807 107.294 20.1562 106.742 20.1562ZM111.234 15.8672V15.6875C111.234 15.0781 111.323 14.513 111.5 13.9922C111.677 13.4661 111.932 13.0104 112.266 12.625C112.604 12.2344 113.016 11.9323 113.5 11.7188C113.99 11.5 114.542 11.3906 115.156 11.3906C115.776 11.3906 116.328 11.5 116.812 11.7188C117.302 11.9323 117.716 12.2344 118.055 12.625C118.393 13.0104 118.651 13.4661 118.828 13.9922C119.005 14.513 119.094 15.0781 119.094 15.6875V15.8672C119.094 16.4766 119.005 17.0417 118.828 17.5625C118.651 18.0833 118.393 18.5391 118.055 18.9297C117.716 19.3151 117.305 19.6172 116.82 19.8359C116.336 20.0495 115.786 20.1562 115.172 20.1562C114.552 20.1562 113.997 20.0495 113.508 19.8359C113.023 19.6172 112.612 19.3151 112.273 18.9297C111.935 18.5391 111.677 18.0833 111.5 17.5625C111.323 17.0417 111.234 16.4766 111.234 15.8672ZM113.117 15.6875V15.8672C113.117 16.2474 113.156 16.6068 113.234 16.9453C113.312 17.2839 113.435 17.5807 113.602 17.8359C113.768 18.0911 113.982 18.2917 114.242 18.4375C114.503 18.5833 114.812 18.6562 115.172 18.6562C115.521 18.6562 115.823 18.5833 116.078 18.4375C116.339 18.2917 116.552 18.0911 116.719 17.8359C116.885 17.5807 117.008 17.2839 117.086 16.9453C117.169 16.6068 117.211 16.2474 117.211 15.8672V15.6875C117.211 15.3125 117.169 14.9583 117.086 14.625C117.008 14.2865 116.883 13.987 116.711 13.7266C116.544 13.4661 116.331 13.263 116.07 13.1172C115.815 12.9661 115.51 12.8906 115.156 12.8906C114.802 12.8906 114.495 12.9661 114.234 13.1172C113.979 13.263 113.768 13.4661 113.602 13.7266C113.435 13.987 113.312 14.2865 113.234 14.625C113.156 14.9583 113.117 15.3125 113.117 15.6875Z" fill="black"/>
<circle cx="14.5" cy="14.5" r="14.5" fill="#0082F4"/>
<path d="M20.0206 14.2402C20.2206 14.3557 20.2206 14.6443 20.0206 14.7598L11.9647 19.4109C11.7647 19.5264 11.5147 19.382 11.5147 19.1511L11.5147 9.84894C11.5147 9.618 11.7647 9.47366 11.9647 9.58913L20.0206 14.2402Z" fill="white"/>
</svg>
