<svg width="211" height="31" viewBox="0 0 211 31" fill="none" xmlns="http://www.w3.org/2000/svg">
<path d="M203.25 0H187.75C183.47 0 180 3.46979 180 7.75V23.25C180 27.5302 183.47 31 187.75 31H203.25C207.53 31 211 27.5302 211 23.25V7.75C211 3.46979 207.53 0 203.25 0Z" fill="white"/>
<path d="M201.7 14.5235C201.891 15.8135 201.671 17.1309 201.07 18.2885C200.47 19.446 199.519 20.3847 198.355 20.971C197.19 21.5573 195.87 21.7614 194.582 21.5542C193.295 21.347 192.105 20.7391 191.183 19.817C190.261 18.8948 189.653 17.7054 189.446 16.4179C189.239 15.1304 189.443 13.8103 190.029 12.6455C190.615 11.4806 191.554 10.5303 192.712 9.92965C193.869 9.32903 195.187 9.10869 196.477 9.29998C197.792 9.4951 199.011 10.1082 199.951 11.0489C200.892 11.9895 201.505 13.2076 201.7 14.5235Z" fill="#C3C3C3"/>
<path d="M204.025 6.97498H204.041" stroke="#C3C3C3" stroke-width="2" stroke-linecap="round" stroke-linejoin="round"/>
<path d="M149.205 6.22639C148.999 5.39755 148.581 4.63813 147.993 4.02484C147.405 3.41155 146.667 2.96611 145.854 2.73351C142.883 2 131 2 131 2C131 2 119.117 2 116.146 2.80336C115.333 3.03596 114.595 3.4814 114.007 4.09469C113.419 4.70798 113.001 5.4674 112.795 6.29625C112.252 9.34476 111.986 12.4373 112.001 15.5349C111.982 18.6559 112.248 21.772 112.795 24.8435C113.022 25.6466 113.449 26.3771 114.036 26.9645C114.623 27.5519 115.35 27.9763 116.146 28.1966C119.117 29 131 29 131 29C131 29 142.883 29 145.854 28.1966C146.667 27.964 147.405 27.5186 147.993 26.9053C148.581 26.292 148.999 25.5326 149.205 24.7038C149.744 21.6782 150.01 18.6093 149.999 15.5349C150.018 12.414 149.752 9.29786 149.205 6.22639Z" fill="white" stroke="white" stroke-linecap="round" stroke-linejoin="round"/>
<path d="M126 20.5702C126 20.5779 126.008 20.5827 126.015 20.5789L135.293 15.3024C135.3 15.2986 135.3 15.2888 135.293 15.285L126.015 10.0085C126.008 10.0047 126 10.0095 126 10.0172V20.5702Z" fill="#C3C3C3"/>
<path d="M82.0613 1.0156C80.576 2.06327 78.9315 2.86458 77.1911 3.38865C76.257 2.31459 75.0156 1.55332 73.6347 1.20781C72.2538 0.862295 70.8002 0.949206 69.4703 1.45679C68.1404 1.96437 66.9985 2.86813 66.199 4.04584C65.3996 5.22355 64.9811 6.61839 65.0001 8.0417V9.59271C62.2744 9.66339 59.5736 9.05887 57.1381 7.833C54.7025 6.60713 52.608 4.79796 51.041 2.56661C51.041 2.56661 44.8369 16.5258 58.7961 22.7298C55.6018 24.8981 51.7966 25.9853 47.939 25.8318C61.8981 33.5869 78.9593 25.8318 78.9593 7.99517C78.9579 7.56314 78.9163 7.13217 78.8352 6.70782C80.4182 5.14672 81.5352 3.17572 82.0613 1.0156Z" fill="white"/>
<path d="M18 0H13.0909C10.921 0 8.83988 0.816515 7.30549 2.26992C5.7711 3.72333 4.90909 5.69457 4.90909 7.75V12.4H0V18.6H4.90909V31H11.4545V18.6H16.3636L18 12.4H11.4545V7.75C11.4545 7.33891 11.6269 6.94467 11.9338 6.65398C12.2407 6.3633 12.6569 6.2 13.0909 6.2H18V0Z" fill="white"/>
</svg>
